<svg id="svg" version="1.1" xmlns="http://www.w3.org/2000/svg" xmlns:xlink="http://www.w3.org/1999/xlink" width="400" height="400" viewBox="0, 0, 400,400"><g id="svgg"><path id="path0" d="M193.200 59.848 C 191.440 60.681,184.600 66.137,178.000 71.972 C 171.400 77.807,163.490 84.790,160.422 87.491 C 149.283 97.295,145.948 100.248,143.200 102.742 C 141.660 104.139,133.048 111.744,124.062 119.641 C 115.076 127.539,105.064 136.340,101.814 139.200 C 98.564 142.060,94.175 145.840,92.061 147.600 C 89.948 149.360,86.339 152.600,84.043 154.800 C 81.746 157.000,79.267 159.120,78.534 159.511 C 77.800 159.902,76.075 161.342,74.699 162.711 C 73.323 164.080,70.768 166.460,69.021 168.000 C 60.254 175.727,55.261 180.074,51.914 182.894 C 35.710 196.547,46.099 220.128,66.099 215.091 C 68.947 214.375,71.888 212.260,80.054 205.062 L 90.400 195.942 90.420 256.571 C 90.432 294.510,90.742 318.513,91.248 320.708 C 93.566 330.765,100.716 339.073,109.790 342.253 L 114.800 344.009 200.517 344.018 L 286.235 344.027 291.717 341.980 C 298.702 339.373,303.295 335.102,307.089 327.688 L 310.000 322.000 310.400 259.272 L 310.800 196.545 320.922 205.358 C 337.030 219.382,349.537 219.034,355.655 204.392 C 360.261 193.367,359.189 192.024,315.249 153.735 C 311.042 150.069,306.700 146.259,305.600 145.268 C 302.936 142.868,284.613 126.896,274.778 118.400 C 270.448 114.660,254.427 100.594,239.176 87.141 C 204.530 56.582,202.567 55.416,193.200 59.848 M205.086 103.902 C 207.349 106.048,215.176 112.978,222.481 119.302 C 229.785 125.626,242.883 137.100,251.588 144.800 C 260.292 152.500,268.758 159.892,270.401 161.227 C 272.045 162.563,275.959 166.034,279.099 168.941 L 284.809 174.228 284.604 245.314 L 284.400 316.400 258.368 316.611 L 232.335 316.821 232.321 315.011 C 232.314 314.015,232.238 291.099,232.154 264.086 L 232.000 214.971 228.114 211.086 L 224.229 207.200 198.409 207.200 C 160.256 207.200,164.041 200.619,164.018 267.000 L 164.000 316.800 140.486 316.800 C 119.782 316.800,116.913 316.649,116.486 315.535 C 116.219 314.839,116.024 282.529,116.054 243.735 L 116.108 173.200 122.142 168.000 C 125.460 165.140,128.766 162.232,129.488 161.538 C 130.210 160.843,137.280 154.610,145.200 147.685 C 153.120 140.761,160.860 133.924,162.400 132.492 C 163.940 131.061,168.077 127.395,171.594 124.345 C 175.110 121.295,179.610 117.322,181.594 115.516 C 201.100 97.755,199.460 98.566,205.086 103.902 " stroke="none" fill="#000000" fill-rule="evenodd"></path></g></svg>